#tb 0: 1/30
#tb 1: 1/44100
0,          0,          0,        1,   153600, 0x4ea8340c
1,          0,          0,     1024,     4096, 0x00000000
1,       1024,       1024,      446,     1784, 0x00000000
0,          1,          1,        1,   153600, 0xc1a53507
1,       1470,       1470,     1024,     4096, 0x00000000
1,       2494,       2494,      446,     1784, 0x00000000
0,          2,          2,        1,   153600, 0x70433874
1,       2940,       2940,     1024,     4096, 0x00000000
1,       3964,       3964,      446,     1784, 0x00000000
0,          3,          3,        1,   153600, 0x6eb52afc
1,       4410,       4410,     1024,     4096, 0x00000000
1,       5434,       5434,      446,     1784, 0x00000000
0,          4,          4,        1,   153600, 0x14e2ecc9
1,       5880,       5880,     1024,     4096, 0x00000000
1,       6904,       6904,      446,     1784, 0x00000000
0,          5,          5,        1,   153600, 0x5d02ae24
1,       7350,       7350,     1024,     4096, 0x00000000
1,       8374,       8374,      446,     1784, 0x00000000
0,          6,          6,        1,   153600, 0x9e145a2b
1,       8820,       8820,     1024,     4096, 0x00000000
1,       9844,       9844,      446,     1784, 0x00000000
0,          7,          7,        1,   153600, 0x8e36b911
1,      10290,      10290,     1024,     4096, 0x00000000
1,      11314,      11314,      446,     1784, 0x00000000
0,          8,          8,        1,   153600, 0x16c6c7b8
1,      11760,      11760,     1024,     4096, 0x00000000
1,      12784,      12784,      446,     1784, 0x00000000
0,          9,          9,        1,   153600, 0xfb41dbef
1,      13230,      13230,     1024,     4096, 0x00000000
1,      14254,      14254,      446,     1784, 0x00000000
0,         10,         10,        1,   153600, 0x80b09b05
1,      14700,      14700,     1024,     4096, 0x00000000
1,      15724,      15724,      446,     1784, 0x00000000
0,         11,         11,        1,   153600, 0xf19704ca
1,      16170,      16170,     1024,     4096, 0x00000000
1,      17194,      17194,      446,     1784, 0x00000000
0,         12,         12,        1,   153600, 0x1a2b363b
1,      17640,      17640,     1024,     4096, 0x00000000
1,      18664,      18664,      446,     1784, 0x00000000
0,         13,         13,        1,   153600, 0x66defb1d
1,      19110,      19110,     1024,     4096, 0x00000000
1,      20134,      20134,      446,     1784, 0x00000000
0,         14,         14,        1,   153600, 0xaa48f543
1,      20580,      20580,     1024,     4096, 0x00000000
1,      21604,      21604,      446,     1784, 0x00000000
0,         15,         15,        1,   153600, 0x3f2a57b1
1,      22050,      22050,     1024,     4096, 0x00000000
1,      23074,      23074,      446,     1784, 0x00000000
0,         16,         16,        1,   153600, 0xf67c9e64
1,      23520,      23520,     1024,     4096, 0x00000000
1,      24544,      24544,      446,     1784, 0x00000000
0,         17,         17,        1,   153600, 0x345fd27d
1,      24990,      24990,     1024,     4096, 0x00000000
1,      26014,      26014,      446,     1784, 0x00000000
0,         18,         18,        1,   153600, 0x679ef4be
1,      26460,      26460,     1024,     4096, 0x00000000
1,      27484,      27484,      446,     1784, 0x00000000
0,         19,         19,        1,   153600, 0xf29007cb
1,      27930,      27930,     1024,     4096, 0x00000000
1,      28954,      28954,      446,     1784, 0x00000000
0,         20,         20,        1,   153600, 0xcf007b98
1,      29400,      29400,     1024,     4096, 0x00000000
1,      30424,      30424,      446,     1784, 0x00000000
0,         21,         21,        1,   153600, 0x0e6979fc
1,      30870,      30870,     1024,     4096, 0x00000000
1,      31894,      31894,      446,     1784, 0x00000000
0,         22,         22,        1,   153600, 0x7b6be830
1,      32340,      32340,     1024,     4096, 0x00000000
1,      33364,      33364,      446,     1784, 0x00000000
0,         23,         23,        1,   153600, 0xb01c6060
1,      33810,      33810,     1024,     4096, 0x00000000
1,      34834,      34834,      446,     1784, 0x00000000
0,         24,         24,        1,   153600, 0x1f21358f
1,      35280,      35280,     1024,     4096, 0x00000000
1,      36304,      36304,      446,     1784, 0x00000000
0,         25,         25,        1,   153600, 0x81839a91
1,      36750,      36750,     1024,     4096, 0x00000000
1,      37774,      37774,      446,     1784, 0x00000000
0,         26,         26,        1,   153600, 0x300f01a2
1,      38220,      38220,     1024,     4096, 0x00000000
1,      39244,      39244,      446,     1784, 0x00000000
0,         27,         27,        1,   153600, 0xe34b8237
1,      39690,      39690,     1024,     4096, 0x00000000
1,      40714,      40714,      446,     1784, 0x00000000
0,         28,         28,        1,   153600, 0x6fdff166
1,      41160,      41160,     1024,     4096, 0x00000000
1,      42184,      42184,      446,     1784, 0x00000000
0,         29,         29,        1,   153600, 0x2dad772d
1,      42630,      42630,     1024,     4096, 0x00000000
1,      43654,      43654,      446,     1784, 0x00000000
0,         30,         30,        1,   153600, 0x9baef7fb
1,      44100,      44100,     1024,     4096, 0x00000000
1,      45124,      45124,      446,     1784, 0x00000000
0,         31,         31,        1,   153600, 0xc7dc8412
1,      45570,      45570,     1024,     4096, 0x00000000
1,      46594,      46594,      446,     1784, 0x00000000
0,         32,         32,        1,   153600, 0x3547119c
1,      47040,      47040,     1024,     4096, 0x00000000
1,      48064,      48064,      446,     1784, 0x00000000
0,         33,         33,        1,   153600, 0xf59fd2d2
1,      48510,      48510,     1024,     4096, 0x00000000
1,      49534,      49534,      446,     1784, 0x00000000
0,         34,         34,        1,   153600, 0x06f296e1
1,      49980,      49980,     1024,     4096, 0x00000000
1,      51004,      51004,      446,     1784, 0x00000000
0,         35,         35,        1,   153600, 0xd65b95db
1,      51450,      51450,     1024,     4096, 0x00000000
1,      52474,      52474,      446,     1784, 0x00000000
0,         36,         36,        1,   153600, 0x70afa3bb
1,      52920,      52920,     1024,     4096, 0x00000000
1,      53944,      53944,      446,     1784, 0x00000000
0,         37,         37,        1,   153600, 0x37fbbb3a
1,      54390,      54390,     1024,     4096, 0x00000000
1,      55414,      55414,      446,     1784, 0x00000000
0,         38,         38,        1,   153600, 0x3c4efd7d
1,      55860,      55860,     1024,     4096, 0x00000000
1,      56884,      56884,      446,     1784, 0x00000000
0,         39,         39,        1,   153600, 0x5ab89e53
1,      57330,      57330,     1024,     4096, 0x00000000
1,      58354,      58354,      446,     1784, 0x00000000
0,         40,         40,        1,   153600, 0xea4b7bf8
1,      58800,      58800,     1024,     4096, 0x00000000
1,      59824,      59824,      446,     1784, 0x00000000
0,         41,         41,        1,   153600, 0x2b1382b1
1,      60270,      60270,     1024,     4096, 0x00000000
1,      61294,      61294,      446,     1784, 0x00000000
0,         42,         42,        1,   153600, 0x0fdbd195
1,      61740,      61740,     1024,     4096, 0x00000000
1,      62764,      62764,      446,     1784, 0x00000000
0,         43,         43,        1,   153600, 0x6e2462d0
1,      63210,      63210,     1024,     4096, 0x00000000
1,      64234,      64234,      446,     1784, 0x00000000
0,         44,         44,        1,   153600, 0x52f543f0
1,      64680,      64680,     1024,     4096, 0x00000000
1,      65704,      65704,      446,     1784, 0x00000000
0,         45,         45,        1,   153600, 0x1e8252da
1,      66150,      66150,     1024,     4096, 0x00000000
1,      67174,      67174,      446,     1784, 0x00000000
0,         46,         46,        1,   153600, 0x412d75d9
1,      67620,      67620,     1024,     4096, 0x00000000
1,      68644,      68644,      446,     1784, 0x00000000
0,         47,         47,        1,   153600, 0x9595acf7
1,      69090,      69090,     1024,     4096, 0x00000000
1,      70114,      70114,      446,     1784, 0x00000000
0,         48,         48,        1,   153600, 0x47d608b6
1,      70560,      70560,     1024,     4096, 0x00000000
1,      71584,      71584,      446,     1784, 0x00000000
0,         49,         49,        1,   153600, 0x18047a81
1,      72030,      72030,     1024,     4096, 0x00000000
1,      73054,      73054,      446,     1784, 0x00000000
0,         50,         50,        1,   153600, 0x5aeaebb1
1,      73500,      73500,     1024,     4096, 0x00000000
1,      74524,      74524,      446,     1784, 0x00000000
0,         51,         51,        1,   153600, 0x54606053
1,      74970,      74970,     1024,     4096, 0x00000000
1,      75994,      75994,      446,     1784, 0x00000000
0,         52,         52,        1,   153600, 0x6a7cdfa8
1,      76440,      76440,     1024,     4096, 0x00000000
1,      77464,      77464,      446,     1784, 0x00000000
0,         53,         53,        1,   153600, 0x6b3765fb
1,      77910,      77910,     1024,     4096, 0x00000000
1,      78934,      78934,      446,     1784, 0x00000000
0,         54,         54,        1,   153600, 0xa7f6f55f
1,      79380,      79380,     1024,     4096, 0x00000000
1,      80404,      80404,      446,     1784, 0x00000000
0,         55,         55,        1,   153600, 0x94ab893e
1,      80850,      80850,     1024,     4096, 0x00000000
1,      81874,      81874,      446,     1784, 0x00000000
0,         56,         56,        1,   153600, 0xe5fb231b
1,      82320,      82320,     1024,     4096, 0x00000000
1,      83344,      83344,      446,     1784, 0x00000000
0,         57,         57,        1,   153600, 0xa64dbad4
1,      83790,      83790,     1024,     4096, 0x00000000
1,      84814,      84814,      446,     1784, 0x00000000
0,         58,         58,        1,   153600, 0x18ee5e1b
1,      85260,      85260,     1024,     4096, 0x00000000
1,      86284,      86284,      446,     1784, 0x00000000
0,         59,         59,        1,   153600, 0x1a5b1516
1,      86730,      86730,     1024,     4096, 0x00000000
1,      87754,      87754,      446,     1784, 0x00000000
0,         60,         60,        1,   153600, 0x94bfdf28
1,      88200,      88200,     1024,     4096, 0x00000000
1,      89224,      89224,      446,     1784, 0x00000000
0,         61,         61,        1,   153600, 0x9fd9ad39
1,      89670,      89670,     1024,     4096, 0x00000000
1,      90694,      90694,      446,     1784, 0x00000000
0,         62,         62,        1,   153600, 0x3edc85b4
1,      91140,      91140,     1024,     4096, 0x00000000
1,      92164,      92164,      446,     1784, 0x00000000
0,         63,         63,        1,   153600, 0x9c3a5bd0
1,      92610,      92610,     1024,     4096, 0x00000000
1,      93634,      93634,      446,     1784, 0x00000000
0,         64,         64,        1,   153600, 0x4e613518
1,      94080,      94080,     1024,     4096, 0x00000000
1,      95104,      95104,      446,     1784, 0x00000000
0,         65,         65,        1,   153600, 0x75661db8
1,      95550,      95550,     1024,     4096, 0x00000000
1,      96574,      96574,      446,     1784, 0x00000000
0,         66,         66,        1,   153600, 0x49b6ec08
1,      97020,      97020,     1024,     4096, 0x00000000
1,      98044,      98044,      446,     1784, 0x00000000
0,         67,         67,        1,   153600, 0x205a9fdc
1,      98490,      98490,     1024,     4096, 0x00000000
1,      99514,      99514,      446,     1784, 0x00000000
0,         68,         68,        1,   153600, 0x1fe7467d
1,      99960,      99960,     1024,     4096, 0x00000000
1,     100984,     100984,      446,     1784, 0x00000000
0,         69,         69,        1,   153600, 0x4895c3a0
1,     101430,     101430,     1024,     4096, 0x00000000
1,     102454,     102454,      446,     1784, 0x00000000
0,         70,         70,        1,   153600, 0xbc8f11fb
1,     102900,     102900,     1024,     4096, 0x00000000
1,     103924,     103924,      446,     1784, 0x00000000
0,         71,         71,        1,   153600, 0xf5323678
1,     104370,     104370,     1024,     4096, 0x00000000
1,     105394,     105394,      446,     1784, 0x00000000
0,         72,         72,        1,   153600, 0xec1026d6
1,     105840,     105840,     1024,     4096, 0x00000000
1,     106864,     106864,      446,     1784, 0x00000000
0,         73,         73,        1,   153600, 0xbf5820a8
1,     107310,     107310,     1024,     4096, 0x00000000
1,     108334,     108334,      446,     1784, 0x00000000
0,         74,         74,        1,   153600, 0xe020efaf
1,     108780,     108780,     1024,     4096, 0x00000000
1,     109804,     109804,      446,     1784, 0x00000000
0,         75,         75,        1,   153600, 0x4948aab4
1,     110250,     110250,     1024,     4096, 0x00000000
1,     111274,     111274,      446,     1784, 0x00000000
0,         76,         76,        1,   153600, 0xda5b583c
1,     111720,     111720,     1024,     4096, 0x00000000
1,     112744,     112744,      446,     1784, 0x00000000
0,         77,         77,        1,   153600, 0x14abc32e
1,     113190,     113190,     1024,     4096, 0x00000000
1,     114214,     114214,      446,     1784, 0x00000000
0,         78,         78,        1,   153600, 0xe62e0ac3
1,     114660,     114660,     1024,     4096, 0x00000000
1,     115684,     115684,      446,     1784, 0x00000000
0,         79,         79,        1,   153600, 0x21009161
1,     116130,     116130,     1024,     4096, 0x00000000
1,     117154,     117154,      446,     1784, 0x00000000
0,         80,         80,        1,   153600, 0x1b88588e
1,     117600,     117600,     1024,     4096, 0x00000000
1,     118624,     118624,      446,     1784, 0x00000000
0,         81,         81,        1,   153600, 0x479d22c3
1,     119070,     119070,     1024,     4096, 0x00000000
1,     120094,     120094,      446,     1784, 0x00000000
0,         82,         82,        1,   153600, 0xb732e13a
1,     120540,     120540,     1024,     4096, 0x00000000
1,     121564,     121564,      446,     1784, 0x00000000
0,         83,         83,        1,   153600, 0xbe5d1c09
1,     122010,     122010,     1024,     4096, 0x00000000
1,     123034,     123034,      446,     1784, 0x00000000
0,         84,         84,        1,   153600, 0x86d8da8a
1,     123480,     123480,     1024,     4096, 0x00000000
1,     124504,     124504,      446,     1784, 0x00000000
0,         85,         85,        1,   153600, 0xe8531f2e
1,     124950,     124950,     1024,     4096, 0x00000000
1,     125974,     125974,      446,     1784, 0x00000000
0,         86,         86,        1,   153600, 0xbc0ed02b
1,     126420,     126420,     1024,     4096, 0x00000000
1,     127444,     127444,      446,     1784, 0x00000000
0,         87,         87,        1,   153600, 0x2451c46a
1,     127890,     127890,     1024,     4096, 0x00000000
1,     128914,     128914,      446,     1784, 0x00000000
0,         88,         88,        1,   153600, 0xa0e6e495
1,     129360,     129360,     1024,     4096, 0x00000000
1,     130384,     130384,      446,     1784, 0x00000000
0,         89,         89,        1,   153600, 0x2a5eec4e
1,     130830,     130830,     1024,     4096, 0x00000000
1,     131854,     131854,      446,     1784, 0x00000000
0,         90,         90,        1,   153600, 0x61221525
1,     132300,     132300,     1024,     4096, 0x00000000
1,     133324,     133324,      446,     1784, 0x00000000
0,         91,         91,        1,   153600, 0xbd2424bd
1,     133770,     133770,     1024,     4096, 0x00000000
1,     134794,     134794,      446,     1784, 0x00000000
0,         92,         92,        1,   153600, 0x889c6991
1,     135240,     135240,     1024,     4096, 0x00000000
1,     136264,     136264,      446,     1784, 0x00000000
0,         93,         93,        1,   153600, 0xdeeaab8a
1,     136710,     136710,     1024,     4096, 0x00000000
1,     137734,     137734,      446,     1784, 0x00000000
0,         94,         94,        1,   153600, 0xd54df87f
1,     138180,     138180,     1024,     4096, 0x00000000
1,     139204,     139204,      446,     1784, 0x00000000
0,         95,         95,        1,   153600, 0xcd6834c0
1,     139650,     139650,     1024,     4096, 0x00000000
1,     140674,     140674,      446,     1784, 0x00000000
0,         96,         96,        1,   153600, 0x50426a51
1,     141120,     141120,     1024,     4096, 0x00000000
1,     142144,     142144,      446,     1784, 0x00000000
0,         97,         97,        1,   153600, 0x43b59368
1,     142590,     142590,     1024,     4096, 0x00000000
1,     143614,     143614,      446,     1784, 0x00000000
0,         98,         98,        1,   153600, 0x1014db32
1,     144060,     144060,     1024,     4096, 0x00000000
1,     145084,     145084,      446,     1784, 0x00000000
0,         99,         99,        1,   153600, 0x8dab1048
1,     145530,     145530,     1024,     4096, 0x00000000
1,     146554,     146554,      446,     1784, 0x00000000
0,        100,        100,        1,   153600, 0xe03f735f
1,     147000,     147000,     1024,     4096, 0x00000000
1,     148024,     148024,      446,     1784, 0x00000000
0,        101,        101,        1,   153600, 0xd654b574
1,     148470,     148470,     1024,     4096, 0x00000000
1,     149494,     149494,      446,     1784, 0x00000000
0,        102,        102,        1,   153600, 0x05cb6aed
1,     149940,     149940,     1024,     4096, 0x00000000
1,     150964,     150964,      446,     1784, 0x00000000
0,        103,        103,        1,   153600, 0x0abf2582
1,     151410,     151410,     1024,     4096, 0x00000000
1,     152434,     152434,      446,     1784, 0x00000000
0,        104,        104,        1,   153600, 0xbd584986
1,     152880,     152880,     1024,     4096, 0x00000000
1,     153904,     153904,      446,     1784, 0x00000000
0,        105,        105,        1,   153600, 0xa5354b08
1,     154350,     154350,     1024,     4096, 0x00000000
1,     155374,     155374,      446,     1784, 0x00000000
0,        106,        106,        1,   153600, 0x24c4edbf
1,     155820,     155820,     1024,     4096, 0x00000000
1,     156844,     156844,      446,     1784, 0x00000000
0,        107,        107,        1,   153600, 0xc816b447
1,     157290,     157290,     1024,     4096, 0x00000000
1,     158314,     158314,      446,     1784, 0x00000000
0,        108,        108,        1,   153600, 0x1a6228d8
1,     158760,     158760,     1024,     4096, 0x00000000
1,     159784,     159784,      446,     1784, 0x00000000
0,        109,        109,        1,   153600, 0x59efe530
1,     160230,     160230,     1024,     4096, 0x00000000
1,     161254,     161254,      446,     1784, 0x00000000
0,        110,        110,        1,   153600, 0x1caef46e
1,     161700,     161700,     1024,     4096, 0x00000000
1,     162724,     162724,      446,     1784, 0x00000000
0,        111,        111,        1,   153600, 0x73697276
1,     163170,     163170,     1024,     4096, 0x00000000
1,     164194,     164194,      446,     1784, 0x00000000
0,        112,        112,        1,   153600, 0x895db22d
1,     164640,     164640,     1024,     4096, 0x00000000
1,     165664,     165664,      446,     1784, 0x00000000
0,        113,        113,        1,   153600, 0x6ba68adc
1,     166110,     166110,     1024,     4096, 0x00000000
1,     167134,     167134,      446,     1784, 0x00000000
0,        114,        114,        1,   153600, 0x12b461e2
1,     167580,     167580,     1024,     4096, 0x00000000
1,     168604,     168604,      446,     1784, 0x00000000
0,        115,        115,        1,   153600, 0x2e2855be
1,     169050,     169050,     1024,     4096, 0x00000000
1,     170074,     170074,      446,     1784, 0x00000000
0,        116,        116,        1,   153600, 0x456dbc04
1,     170520,     170520,     1024,     4096, 0x00000000
1,     171544,     171544,      446,     1784, 0x00000000
0,        117,        117,        1,   153600, 0x951c8348
1,     171990,     171990,     1024,     4096, 0x00000000
1,     173014,     173014,      446,     1784, 0x00000000
0,        118,        118,        1,   153600, 0x3f048468
1,     173460,     173460,     1024,     4096, 0x00000000
1,     174484,     174484,      446,     1784, 0x00000000
0,        119,        119,        1,   153600, 0x712b9346
1,     174930,     174930,     1024,     4096, 0x00000000
1,     175954,     175954,      446,     1784, 0x00000000
0,        120,        120,        1,   153600, 0xae919ec4
1,     176400,     176400,     1024,     4096, 0x00000000
1,     177424,     177424,      446,     1784, 0x00000000
0,        121,        121,        1,   153600, 0x9de75f06
1,     177870,     177870,     1024,     4096, 0x00000000
1,     178894,     178894,      446,     1784, 0x00000000
0,        122,        122,        1,   153600, 0x788f168f
1,     179340,     179340,     1024,     4096, 0x00000000
1,     180364,     180364,      446,     1784, 0x00000000
0,        123,        123,        1,   153600, 0x42fbd06d
1,     180810,     180810,     1024,     4096, 0x00000000
1,     181834,     181834,      446,     1784, 0x00000000
0,        124,        124,        1,   153600, 0x0cf3ddb3
1,     182280,     182280,     1024,     4096, 0x00000000
1,     183304,     183304,      446,     1784, 0x00000000
0,        125,        125,        1,   153600, 0x9ffd3d4b
1,     183750,     183750,     1024,     4096, 0x00000000
1,     184774,     184774,      446,     1784, 0x00000000
0,        126,        126,        1,   153600, 0x7d7e955f
1,     185220,     185220,     1024,     4096, 0x00000000
1,     186244,     186244,      446,     1784, 0x00000000
0,        127,        127,        1,   153600, 0xd551370e
1,     186690,     186690,     1024,     4096, 0x00000000
1,     187714,     187714,      446,     1784, 0x00000000
0,        128,        128,        1,   153600, 0xfdf044c6
1,     188160,     188160,     1024,     4096, 0x00000000
1,     189184,     189184,      446,     1784, 0x00000000
0,        129,        129,        1,   153600, 0x06cd46e5
1,     189630,     189630,     1024,     4096, 0x00000000
1,     190654,     190654,      446,     1784, 0x00000000
0,        130,        130,        1,   153600, 0xeb662dce
1,     191100,     191100,     1024,     4096, 0x00000000
1,     192124,     192124,      446,     1784, 0x00000000
0,        131,        131,        1,   153600, 0x18965e58
1,     192570,     192570,     1024,     4096, 0x00000000
1,     193594,     193594,      446,     1784, 0x00000000
0,        132,        132,        1,   153600, 0xc2e19301
1,     194040,     194040,     1024,     4096, 0x00000000
1,     195064,     195064,      446,     1784, 0x00000000
0,        133,        133,        1,   153600, 0xfcc9f1ab
1,     195510,     195510,     1024,     4096, 0x00000000
1,     196534,     196534,      446,     1784, 0x00000000
0,        134,        134,        1,   153600, 0x7265d309
1,     196980,     196980,     1024,     4096, 0x00000000
1,     198004,     198004,      446,     1784, 0x00000000
0,        135,        135,        1,   153600, 0xa60bb009
1,     198450,     198450,     1024,     4096, 0x00000000
1,     199474,     199474,      446,     1784, 0x00000000
0,        136,        136,        1,   153600, 0xc2e0fb0a
1,     199920,     199920,     1024,     4096, 0x00000000
1,     200944,     200944,      446,     1784, 0x00000000
0,        137,        137,        1,   153600, 0xde520767
1,     201390,     201390,     1024,     4096, 0x00000000
1,     202414,     202414,      446,     1784, 0x00000000
0,        138,        138,        1,   153600, 0xd3625f0e
1,     202860,     202860,     1024,     4096, 0x00000000
1,     203884,     203884,      446,     1784, 0x00000000
0,        139,        139,        1,   153600, 0xda356d3e
1,     204330,     204330,     1024,     4096, 0x00000000
1,     205354,     205354,      446,     1784, 0x00000000
0,        140,        140,        1,   153600, 0x316686ab
1,     205800,     205800,     1024,     4096, 0x00000000
1,     206824,     206824,      446,     1784, 0x00000000
0,        141,        141,        1,   153600, 0xe04b02c4
1,     207270,     207270,     1024,     4096, 0x00000000
1,     208294,     208294,      446,     1784, 0x00000000
0,        142,        142,        1,   153600, 0x43ba87fa
1,     208740,     208740,     1024,     4096, 0x00000000
1,     209764,     209764,      446,     1784, 0x00000000
0,        143,        143,        1,   153600, 0x036337a0
1,     210210,     210210,     1024,     4096, 0x00000000
1,     211234,     211234,      446,     1784, 0x00000000
0,        144,        144,        1,   153600, 0x60993be9
1,     211680,     211680,     1024,     4096, 0x00000000
1,     212704,     212704,      446,     1784, 0x00000000
0,        145,        145,        1,   153600, 0x6f3a7503
1,     213150,     213150,     1024,     4096, 0x00000000
1,     214174,     214174,      446,     1784, 0x00000000
0,        146,        146,        1,   153600, 0xcdd8c684
1,     214620,     214620,     1024,     4096, 0x00000000
1,     215644,     215644,      446,     1784, 0x00000000
0,        147,        147,        1,   153600, 0x9eff1191
1,     216090,     216090,     1024,     4096, 0x00000000
1,     217114,     217114,      446,     1784, 0x00000000
0,        148,        148,        1,   153600, 0x0f780a0a
1,     217560,     217560,     1024,     4096, 0x00000000
1,     218584,     218584,      446,     1784, 0x00000000
0,        149,        149,        1,   153600, 0x88e9c353
1,     219030,     219030,     1024,     4096, 0x00000000
1,     220054,     220054,      446,     1784, 0x00000000
0,        150,        150,        1,   153600, 0x74f394ef
1,     220500,     220500,     1024,     4096, 0x00000000
1,     221524,     221524,      446,     1784, 0x00000000
0,        151,        151,        1,   153600, 0x0acc6a5f
1,     221970,     221970,     1024,     4096, 0x00000000
1,     222994,     222994,      446,     1784, 0x00000000
0,        152,        152,        1,   153600, 0xf05be9f6
1,     223440,     223440,     1024,     4096, 0x00000000
1,     224464,     224464,      446,     1784, 0x00000000
0,        153,        153,        1,   153600, 0x9f5ce566
1,     224910,     224910,     1024,     4096, 0x00000000
1,     225934,     225934,      446,     1784, 0x00000000
0,        154,        154,        1,   153600, 0xd1320fc0
1,     226380,     226380,     1024,     4096, 0x00000000
1,     227404,     227404,      446,     1784, 0x00000000
0,        155,        155,        1,   153600, 0x4518e731
1,     227850,     227850,     1024,     4096, 0x00000000
1,     228874,     228874,      446,     1784, 0x00000000
0,        156,        156,        1,   153600, 0x56b1a997
1,     229320,     229320,     1024,     4096, 0x00000000
1,     230344,     230344,      446,     1784, 0x00000000
0,        157,        157,        1,   153600, 0x5ada7ae6
1,     230790,     230790,     1024,     4096, 0x00000000
1,     231814,     231814,      446,     1784, 0x00000000
0,        158,        158,        1,   153600, 0xe600f7b1
1,     232260,     232260,     1024,     4096, 0x00000000
1,     233284,     233284,      446,     1784, 0x00000000
0,        159,        159,        1,   153600, 0xcc139be0
1,     233730,     233730,     1024,     4096, 0x00000000
1,     234754,     234754,      446,     1784, 0x00000000
0,        160,        160,        1,   153600, 0xb7bb5755
1,     235200,     235200,     1024,     4096, 0x00000000
1,     236224,     236224,      446,     1784, 0x00000000
0,        161,        161,        1,   153600, 0x4d942cc5
1,     236670,     236670,     1024,     4096, 0x00000000
1,     237694,     237694,      446,     1784, 0x00000000
0,        162,        162,        1,   153600, 0x3332ac5c
1,     238140,     238140,     1024,     4096, 0x00000000
1,     239164,     239164,      446,     1784, 0x00000000
0,        163,        163,        1,   153600, 0xe224a7cc
1,     239610,     239610,     1024,     4096, 0x00000000
1,     240634,     240634,      446,     1784, 0x00000000
0,        164,        164,        1,   153600, 0x1409d217
1,     241080,     241080,     1024,     4096, 0x00000000
1,     242104,     242104,      446,     1784, 0x00000000
0,        165,        165,        1,   153600, 0x87e0a997
1,     242550,     242550,     1024,     4096, 0x00000000
1,     243574,     243574,      446,     1784, 0x00000000
0,        166,        166,        1,   153600, 0x99796bfd
1,     244020,     244020,     1024,     4096, 0x00000000
1,     245044,     245044,      446,     1784, 0x00000000
0,        167,        167,        1,   153600, 0x9da23d4c
1,     245490,     245490,     1024,     4096, 0x00000000
1,     246514,     246514,      446,     1784, 0x00000000
0,        168,        168,        1,   153600, 0x28d7ba17
1,     246960,     246960,     1024,     4096, 0x00000000
1,     247984,     247984,      446,     1784, 0x00000000
0,        169,        169,        1,   153600, 0x0eea5e46
1,     248430,     248430,     1024,     4096, 0x00000000
1,     249454,     249454,      446,     1784, 0x00000000
0,        170,        170,        1,   153600, 0x620b28a4
1,     249900,     249900,     1024,     4096, 0x00000000
1,     250924,     250924,      446,     1784, 0x00000000
0,        171,        171,        1,   153600, 0xf7d5fe05
1,     251370,     251370,     1024,     4096, 0x00000000
1,     252394,     252394,      446,     1784, 0x00000000
0,        172,        172,        1,   153600, 0xdd737dab
1,     252840,     252840,     1024,     4096, 0x00000000
1,     253864,     253864,      446,     1784, 0x00000000
0,        173,        173,        1,   153600, 0x8c74791b
1,     254310,     254310,     1024,     4096, 0x00000000
1,     255334,     255334,      446,     1784, 0x00000000
0,        174,        174,        1,   153600, 0xbe4aa366
1,     255780,     255780,     1024,     4096, 0x00000000
1,     256804,     256804,      446,     1784, 0x00000000
0,        175,        175,        1,   153600, 0x32307ae6
1,     257250,     257250,     1024,     4096, 0x00000000
1,     258274,     258274,      446,     1784, 0x00000000
0,        176,        176,        1,   153600, 0x43c93d4c
1,     258720,     258720,     1024,     4096, 0x00000000
1,     259744,     259744,      446,     1784, 0x00000000
0,        177,        177,        1,   153600, 0x47f20e9b
1,     260190,     260190,     1024,     4096, 0x00000000
1,     261214,     261214,      446,     1784, 0x00000000
0,        178,        178,        1,   153600, 0xd3188b66
1,     261660,     261660,     1024,     4096, 0x00000000
1,     262684,     262684,      446,     1784, 0x00000000
0,        179,        179,        1,   153600, 0xb92b2f95
1,     263130,     263130,     1024,     4096, 0x00000000
1,     264154,     264154,      446,     1784, 0x00000000
0,        180,        180,        1,   153600, 0x5662a56f
1,     264600,     264600,     1024,     4096, 0x00000000
1,     265624,     265624,      446,     1784, 0x00000000
0,        181,        181,        1,   153600, 0xec2c7adf
1,     266070,     266070,     1024,     4096, 0x00000000
1,     267094,     267094,      446,     1784, 0x00000000
0,        182,        182,        1,   153600, 0xd1cafa76
1,     267540,     267540,     1024,     4096, 0x00000000
1,     268564,     268564,      446,     1784, 0x00000000
0,        183,        183,        1,   153600, 0x80cbf5e6
1,     269010,     269010,     1024,     4096, 0x00000000
1,     270034,     270034,      446,     1784, 0x00000000
0,        184,        184,        1,   153600, 0xb2a12040
1,     270480,     270480,     1024,     4096, 0x00000000
1,     271504,     271504,      446,     1784, 0x00000000
0,        185,        185,        1,   153600, 0x2687f7b1
1,     271950,     271950,     1024,     4096, 0x00000000
1,     272974,     272974,      446,     1784, 0x00000000
0,        186,        186,        1,   153600, 0x3820ba17
1,     273420,     273420,     1024,     4096, 0x00000000
1,     274444,     274444,      446,     1784, 0x00000000
0,        187,        187,        1,   153600, 0x3c498b66
1,     274890,     274890,     1024,     4096, 0x00000000
1,     275914,     275914,      446,     1784, 0x00000000
0,        188,        188,        1,   153600, 0xc76f0840
1,     276360,     276360,     1024,     4096, 0x00000000
1,     277384,     277384,      446,     1784, 0x00000000
0,        189,        189,        1,   153600, 0xad82ac60
1,     277830,     277830,     1024,     4096, 0x00000000
1,     278854,     278854,      446,     1784, 0x00000000
0,        190,        190,        1,   153600, 0x5143499e
1,     279300,     279300,     1024,     4096, 0x00000000
1,     280324,     280324,      446,     1784, 0x00000000
0,        191,        191,        1,   153600, 0xe70d1f0e
1,     280770,     280770,     1024,     4096, 0x00000000
1,     281794,     281794,      446,     1784, 0x00000000
0,        192,        192,        1,   153600, 0xccab9ea5
1,     282240,     282240,     1024,     4096, 0x00000000
1,     283264,     283264,      446,     1784, 0x00000000
0,        193,        193,        1,   153600, 0x7bac9a15
1,     283710,     283710,     1024,     4096, 0x00000000
1,     284734,     284734,      446,     1784, 0x00000000
0,        194,        194,        1,   153600, 0xad82c460
1,     285180,     285180,     1024,     4096, 0x00000000
1,     286204,     286204,      446,     1784, 0x00000000
0,        195,        195,        1,   153600, 0x21689be0
1,     286650,     286650,     1024,     4096, 0x00000000
1,     287674,     287674,      446,     1784, 0x00000000
0,        196,        196,        1,   153600, 0x33015e46
1,     288120,     288120,     1024,     4096, 0x00000000
1,     289144,     289144,      446,     1784, 0x00000000
0,        197,        197,        1,   153600, 0x372a2f95
1,     289590,     289590,     1024,     4096, 0x00000000
1,     290614,     290614,      446,     1784, 0x00000000
0,        198,        198,        1,   153600, 0xc250ac60
1,     291060,     291060,     1024,     4096, 0x00000000
1,     292084,     292084,      446,     1784, 0x00000000
0,        199,        199,        1,   153600, 0xa863508f
1,     292530,     292530,     1024,     4096, 0x00000000
1,     293554,     293554,      446,     1784, 0x00000000
0,        200,        200,        1,   153600, 0xe09586ee
1,     294000,     294000,     1024,     4096, 0x00000000
1,     295024,     295024,      446,     1784, 0x00000000
0,        201,        201,        1,   153600, 0xeb55619c
1,     295470,     295470,     1024,     4096, 0x00000000
1,     296494,     296494,      446,     1784, 0x00000000
0,        202,        202,        1,   153600, 0x18b9da53
1,     296940,     296940,     1024,     4096, 0x00000000
1,     297964,     297964,      446,     1784, 0x00000000
0,        203,        203,        1,   153600, 0xdee0d443
1,     298410,     298410,     1024,     4096, 0x00000000
1,     299434,     299434,      446,     1784, 0x00000000
0,        204,        204,        1,   153600, 0x651b00cf
1,     299880,     299880,     1024,     4096, 0x00000000
1,     300904,     300904,      446,     1784, 0x00000000
0,        205,        205,        1,   153600, 0x0c4bd6a2
1,     301350,     301350,     1024,     4096, 0x00000000
1,     302374,     302374,      446,     1784, 0x00000000
0,        206,        206,        1,   153600, 0xffed98c5
1,     302820,     302820,     1024,     4096, 0x00000000
1,     303844,     303844,      446,     1784, 0x00000000
0,        207,        207,        1,   153600, 0x04f26c6d
1,     304290,     304290,     1024,     4096, 0x00000000
1,     305314,     305314,      446,     1784, 0x00000000
0,        208,        208,        1,   153600, 0xaf51e9b8
1,     305760,     305760,     1024,     4096, 0x00000000
1,     306784,     306784,      446,     1784, 0x00000000
0,        209,        209,        1,   153600, 0xcd1c8abd
1,     307230,     307230,     1024,     4096, 0x00000000
1,     308254,     308254,      446,     1784, 0x00000000
0,        210,        210,        1,   153600, 0xd1c95c5e
1,     308700,     308700,     1024,     4096, 0x00000000
1,     309724,     309724,      446,     1784, 0x00000000
0,        211,        211,        1,   153600, 0xdc89370c
1,     310170,     310170,     1024,     4096, 0x00000000
1,     311194,     311194,      446,     1784, 0x00000000
0,        212,        212,        1,   153600, 0x09edafc3
1,     311640,     311640,     1024,     4096, 0x00000000
1,     312664,     312664,      446,     1784, 0x00000000
0,        213,        213,        1,   153600, 0xd014a9b3
1,     313110,     313110,     1024,     4096, 0x00000000
1,     314134,     314134,      446,     1784, 0x00000000
0,        214,        214,        1,   153600, 0x564fd630
1,     314580,     314580,     1024,     4096, 0x00000000
1,     315604,     315604,      446,     1784, 0x00000000
0,        215,        215,        1,   153600, 0xfd70ac12
1,     316050,     316050,     1024,     4096, 0x00000000
1,     317074,     317074,      446,     1784, 0x00000000
0,        216,        216,        1,   153600, 0xf1216e35
1,     317520,     317520,     1024,     4096, 0x00000000
1,     318544,     318544,      446,     1784, 0x00000000
0,        217,        217,        1,   153600, 0xf61741dd
1,     318990,     318990,     1024,     4096, 0x00000000
1,     320014,     320014,      446,     1784, 0x00000000
0,        218,        218,        1,   153600, 0xa085bf28
1,     320460,     320460,     1024,     4096, 0x00000000
1,     321484,     321484,      446,     1784, 0x00000000
0,        219,        219,        1,   153600, 0xbe50602d
1,     321930,     321930,     1024,     4096, 0x00000000
1,     322954,     322954,      446,     1784, 0x00000000
0,        220,        220,        1,   153600, 0x9f07dbf5
1,     323400,     323400,     1024,     4096, 0x00000000
1,     324424,     324424,      446,     1784, 0x00000000
0,        221,        221,        1,   153600, 0xa9c7b6a3
1,     324870,     324870,     1024,     4096, 0x00000000
1,     325894,     325894,      446,     1784, 0x00000000
0,        222,        222,        1,   153600, 0xd71c2f69
1,     326340,     326340,     1024,     4096, 0x00000000
1,     327364,     327364,      446,     1784, 0x00000000
0,        223,        223,        1,   153600, 0x9d522959
1,     327810,     327810,     1024,     4096, 0x00000000
1,     328834,     328834,      446,     1784, 0x00000000
0,        224,        224,        1,   153600, 0x238d55d6
1,     329280,     329280,     1024,     4096, 0x00000000
1,     330304,     330304,      446,     1784, 0x00000000
0,        225,        225,        1,   153600, 0xcaae2bb8
1,     330750,     330750,     1024,     4096, 0x00000000
1,     331774,     331774,      446,     1784, 0x00000000
0,        226,        226,        1,   153600, 0xbe5fedcc
1,     332220,     332220,     1024,     4096, 0x00000000
1,     333244,     333244,      446,     1784, 0x00000000
0,        227,        227,        1,   153600, 0xc355c174
1,     333690,     333690,     1024,     4096, 0x00000000
1,     334714,     334714,      446,     1784, 0x00000000
0,        228,        228,        1,   153600, 0x6dc33ece
1,     335160,     335160,     1024,     4096, 0x00000000
1,     336184,     336184,      446,     1784, 0x00000000
0,        229,        229,        1,   153600, 0x8b8edfc4
1,     336630,     336630,     1024,     4096, 0x00000000
1,     337654,     337654,      446,     1784, 0x00000000
0,        230,        230,        1,   153600, 0x29f9d765
1,     338100,     338100,     1024,     4096, 0x00000000
1,     339124,     339124,      446,     1784, 0x00000000
0,        231,        231,        1,   153600, 0x34b9b213
1,     339570,     339570,     1024,     4096, 0x00000000
1,     340594,     340594,      446,     1784, 0x00000000
0,        232,        232,        1,   153600, 0x620e2ad9
1,     341040,     341040,     1024,     4096, 0x00000000
1,     342064,     342064,      446,     1784, 0x00000000
0,        233,        233,        1,   153600, 0x284424c9
1,     342510,     342510,     1024,     4096, 0x00000000
1,     343534,     343534,      446,     1784, 0x00000000
0,        234,        234,        1,   153600, 0xae705146
1,     343980,     343980,     1024,     4096, 0x00000000
1,     345004,     345004,      446,     1784, 0x00000000
0,        235,        235,        1,   153600, 0x55a02728
1,     345450,     345450,     1024,     4096, 0x00000000
1,     346474,     346474,      446,     1784, 0x00000000
0,        236,        236,        1,   153600, 0x4951e93c
1,     346920,     346920,     1024,     4096, 0x00000000
1,     347944,     347944,      446,     1784, 0x00000000
0,        237,        237,        1,   153600, 0x4e47bce4
1,     348390,     348390,     1024,     4096, 0x00000000
1,     349414,     349414,      446,     1784, 0x00000000
0,        238,        238,        1,   153600, 0xf8a63a3e
1,     349860,     349860,     1024,     4096, 0x00000000
1,     350884,     350884,      446,     1784, 0x00000000
0,        239,        239,        1,   153600, 0x1680db34
1,     351330,     351330,     1024,     4096, 0x00000000
1,     352354,     352354,      446,     1784, 0x00000000
0,        240,        240,        1,   153600, 0xef2501bf
1,     352800,     352800,     1024,     4096, 0x00000000
1,     353824,     353824,      446,     1784, 0x00000000
0,        241,        241,        1,   153600, 0xf9e5dc5e
1,     354270,     354270,     1024,     4096, 0x00000000
1,     355294,     355294,      446,     1784, 0x00000000
0,        242,        242,        1,   153600, 0x27495524
1,     355740,     355740,     1024,     4096, 0x00000000
1,     356764,     356764,      446,     1784, 0x00000000
0,        243,        243,        1,   153600, 0xed704f14
1,     357210,     357210,     1024,     4096, 0x00000000
1,     358234,     358234,      446,     1784, 0x00000000
0,        244,        244,        1,   153600, 0x73ab7b91
1,     358680,     358680,     1024,     4096, 0x00000000
1,     359704,     359704,      446,     1784, 0x00000000
0,        245,        245,        1,   153600, 0x1adb5173
1,     360150,     360150,     1024,     4096, 0x00000000
1,     361174,     361174,      446,     1784, 0x00000000
0,        246,        246,        1,   153600, 0x0e8c1396
1,     361620,     361620,     1024,     4096, 0x00000000
1,     362644,     362644,      446,     1784, 0x00000000
0,        247,        247,        1,   153600, 0x1382e72f
1,     363090,     363090,     1024,     4096, 0x00000000
1,     364114,     364114,      446,     1784, 0x00000000
0,        248,        248,        1,   153600, 0xbde16489
1,     364560,     364560,     1024,     4096, 0x00000000
1,     365584,     365584,      446,     1784, 0x00000000
0,        249,        249,        1,   153600, 0xdbac058e
1,     366030,     366030,     1024,     4096, 0x00000000
1,     367054,     367054,      446,     1784, 0x00000000
